{"title":"The.Dark.Knight.Rises.2012.TS.XviD-SLiCK","uid":7504008,"size":2254647480,"categoryP":"video","categoryS":"movies","magnet":"?xt=urn:btih:e68e92c4b1cd9da1bbdd40220b095adf7cce7a18&amp;dn=The.Dark.Knight.Rises.2012.TS.XviD-SLiCK&amp;tr=udp%3A%2F%2Ftracker.openbittorrent.com%3A80&amp;tr=udp%3A%2F%2Fopen.demonii.com%3A1337&amp;tr=udp%3A%2F%2Ftracker.coppersurfer.tk%3A6969&amp;tr=udp%3A%2F%2Fexodus.desync.com%3A6969","seeders":1,"leechers":0,"uploader":"maximersk","files":5,"time":1344108484,"description":"The.Dark.Knight.Rises.2012.TS.XviD-SLiCK\n\n\n\n\n\nEight years after the events of The Dark Knight, the terrorist leader Bane arrives in Gotham City, pushing it and its police force to their limits, forcing its former hero Batman to resurface after taking the fall for Harvey Dent's crimes. \n\nGeneral Information\nComplete name : The Dark Knight Rises (2012) TS SLiCK.avi\nFormat : AVI\nFormat/Info : Audio Video Interleave\nFormat profile : OpenDML\nFile size : 2.09 GiB\nDuration : 2h 37mn\nOverall bit rate : 1 898 Kbps\nWriting library : VirtualDub build 32842/release\n\nVideo\nID : 0\nFormat : MPEG-4 Visual\nFormat profile : Advanced Simple@L5\nFormat settings, BVOP : 2\nFormat settings, QPel : No\nFormat settings, GMC : No warppoints\nFormat settings, Matrix : Default (H.263)\nCodec ID : XVID\nCodec ID/Hint : XviD\nDuration : 2h 37mn\nBit rate : 1 499 Kbps\nWidth : 700 pixels\nHeight : 240 pixels\nDisplay aspect ratio : 2.917\nFrame rate : 29.970 fps\nColor space : YUV\nChroma subsampling : 4:2:0\nBit depth : 8 bits\nScan type : Progressive\nCompression mode : Lossy\nBits/(Pixel*Frame) : 0.298\nStream size : 1.65 GiB (79%)\nWriting library : XviD 1.2.1 (UTC 2008-12-04)\n\nAudio\nID : 1\nFormat : AC-3\nFormat/Info : Audio Coding 3\nMode extension : CM (complete main)\nFormat settings, Endianness : Big\nCodec ID : 2000\nDuration : 2h 37mn\nBit rate mode : Constant\nBit rate : 384 Kbps\nChannel(s) : 6 channels\nChannel positions : Front: L C R, Side: L R, LFE\nSampling rate : 48.0 KHz\nBit depth : 16 bits\nCompression mode : Lossy\nStream size : 432 MiB (20%)\nAlignment : Split accross interleaves\nInterleave, duration : 33 ms (1.00 video frame)\nInterleave, preload duration : 500 ms\n\nNotes\nEncoder: FridayToker\nSource(s): Video: HD-CAM (thanks) Audio: 26k (thanks)\n\nDecided to do this because the source was better than previous, didn't do\na lot to this, just changed the AR and tweaked the colours, brightness,\ncontrast, saturation etc then muxed in 26k's audio.\nI know folk will say the audio is not line and they are probably right but I'm\njust calling it same as everyone else, if it's not line then it's the sweetest\ncam audio i have heard.\n","torrent":{"xt":"urn:btih:e68e92c4b1cd9da1bbdd40220b095adf7cce7a18","amp;dn":"The.Dark.Knight.Rises.2012.TS.XviD-SLiCK","amp;tr":["udp%3A%2F%2Ftracker.openbittorrent.com%3A80","udp%3A%2F%2Fopen.demonii.com%3A1337","udp%3A%2F%2Ftracker.coppersurfer.tk%3A6969","udp%3A%2F%2Fexodus.desync.com%3A6969"],"infoHash":"e68e92c4b1cd9da1bbdd40220b095adf7cce7a18","infoHashBuffer":{"type":"Buffer","data":[230,142,146,196,177,205,157,161,187,221,64,34,11,9,90,223,124,206,122,24]},"announce":[],"urlList":[]}}